<svg width="27" height="27" xmlns="http://www.w3.org/2000/svg"><path d="M0 2.933L15.321 0v26.526L0 23.593V2.933zm16.343.128v3.028h7.181v2.073h-7.181v2.04h7.15v2.04h-7.15v2.041h7.15v2.04h-7.15v2.04h7.15v2.041h-7.15v3.06h9.352c.47 0 .862-.402.862-.892V3.953c0-.49-.391-.892-.862-.892h-9.352zM3.958 8.098H2.011l2.107 10.33h2.074l1.373-6.632c.064-.303.096-.677.127-1.147h.032c.016.426.056.8.128 1.147l1.34 6.632h1.98l2.138-10.33h-1.82l-1.116 6.886a9.61 9.61 0 0 0-.128 1.148 9.946 9.946 0 0 0-.128-1.084l-1.34-6.95H6.863l-1.469 6.854c-.091.439-.143.841-.16 1.212h-.031c-.024-.494-.048-.889-.096-1.18L3.958 8.098z" fill="#2086BF" fill-rule="evenodd"/></svg>